<svg width="42" height="37" viewBox="0 0 42 37" fill="none" xmlns="http://www.w3.org/2000/svg">
<circle cx="40.1641" cy="35.709" r="1" transform="rotate(180 40.1641 35.709)" fill="#ACACAF"/>
<circle cx="32.4883" cy="35.709" r="1" transform="rotate(180 32.4883 35.709)" fill="#ACACAF"/>
<circle cx="24.8125" cy="35.709" r="1" transform="rotate(180 24.8125 35.709)" fill="#ACACAF"/>
<circle cx="40.1641" cy="18.709" r="1" transform="rotate(180 40.1641 18.709)" fill="#ACACAF"/>
<circle cx="17.0312" cy="18.709" r="1" transform="rotate(180 17.0312 18.709)" fill="#ACACAF"/>
<circle cx="32.4531" cy="18.709" r="1" transform="rotate(180 32.4531 18.709)" fill="#ACACAF"/>
<circle cx="24.7422" cy="18.709" r="1" transform="rotate(180 24.7422 18.709)" fill="#ACACAF"/>
<circle cx="40.0781" cy="10.209" r="1" transform="rotate(180 40.0781 10.209)" fill="#ACACAF"/>
<circle cx="17.2031" cy="10.209" r="1" transform="rotate(180 17.2031 10.209)" fill="#ACACAF"/>
<circle cx="32.4531" cy="10.209" r="1" transform="rotate(180 32.4531 10.209)" fill="#ACACAF"/>
<circle cx="24.8281" cy="10.209" r="1" transform="rotate(180 24.8281 10.209)" fill="#ACACAF"/>
<circle cx="40.1641" cy="1.70898" r="1" transform="rotate(180 40.1641 1.70898)" fill="#ACACAF"/>
<circle cx="32.6289" cy="1.70898" r="1" transform="rotate(180 32.6289 1.70898)" fill="#ACACAF"/>
<circle cx="25.0938" cy="1.70898" r="1" transform="rotate(180 25.0938 1.70898)" fill="#ACACAF"/>
<circle cx="40.1641" cy="27.209" r="1" transform="rotate(180 40.1641 27.209)" fill="#ACACAF"/>
<circle cx="16.7383" cy="27.209" r="1" transform="rotate(180 16.7383 27.209)" fill="#ACACAF"/>
<circle cx="32.3555" cy="27.209" r="1" transform="rotate(180 32.3555 27.209)" fill="#ACACAF"/>
<circle cx="8.92969" cy="27.209" r="1" transform="rotate(180 8.92969 27.209)" fill="#ACACAF"/>
<circle cx="24.5469" cy="27.209" r="1" transform="rotate(180 24.5469 27.209)" fill="#ACACAF"/>
<circle cx="1.12109" cy="27.209" r="1" transform="rotate(180 1.12109 27.209)" fill="#ACACAF"/>
</svg>
