<svg width="163" height="43" viewBox="0 0 163 43" fill="none" xmlns="http://www.w3.org/2000/svg">
<path d="M53.7155 30.632L55.8118 24.2538H61.851L58.9895 14.5863L62.5664 3.65513L72.8316 36.5087H65.2617L63.598 30.632H53.7155ZM47.2603 36.5087L58.2574 3.65513H50.9704L43.4504 24.8956L38.1098 3.65513H32.5031L26.7633 24.8956L22.7205 15.208L19.0603 28.8068L22.8369 36.5087H30.0075L35.1983 17.4745L40.1895 36.5087H47.2603ZM7.36438 25.2366H11.8564C13.0815 25.2611 14.3031 25.072 15.4833 24.675L16.6479 20.3627L19.8922 8.32844C19.643 7.851 19.359 7.40128 19.0437 6.98461C18.0979 5.82674 16.9553 4.92958 15.6945 4.35482C14.4337 3.78007 13.0846 3.54137 11.7399 3.65513H0.459961V36.5087H7.36438V25.2366ZM13.3038 11.1966C13.637 11.6171 13.8958 12.1149 14.0645 12.6596C14.2333 13.2044 14.3084 13.7848 14.2854 14.3656C14.3384 15.5156 14.0294 16.6473 13.4203 17.5347C12.9507 18.0308 12.4003 18.4031 11.8044 18.6276C11.2084 18.8521 10.5801 18.9239 9.95977 18.8384H7.36438V10.0533H9.97641C11.1695 9.89588 12.3658 10.3141 13.3038 11.2167V11.1966ZM149.357 7.14172V8.47385H148.984C148.601 8.47202 148.225 8.35907 147.886 8.14458C147.775 8.0678 147.673 7.97397 147.582 7.86545C147.216 8.26659 146.701 8.46884 146.035 8.47385H140.64C140.395 8.47385 140.163 8.42371 139.944 8.32175C139.629 8.17524 139.354 7.9265 139.149 7.60304C139.073 7.48441 139.009 7.35603 138.957 7.22028C138.896 7.05896 138.848 6.89035 138.816 6.71718C138.777 6.50766 138.758 6.29339 138.76 6.07869C138.76 5.87144 138.777 5.64747 138.81 5.40344C138.848 5.15607 138.887 4.92374 138.927 4.70478C138.97 4.48248 139.013 4.29194 139.053 4.13315L139.128 3.83564L139.652 4.03621L140.182 4.23678C140.105 4.51659 140.041 4.80114 139.99 5.08921C139.957 5.26433 139.926 5.44044 139.9 5.61738C139.878 5.7698 139.866 5.92403 139.864 6.07869C139.864 6.32607 139.896 6.51995 139.96 6.66202C140.028 6.80409 140.102 6.91107 140.187 6.98461C140.266 7.04941 140.355 7.09484 140.449 7.11832C140.536 7.13504 140.603 7.14172 140.65 7.14172H146C146.255 7.14172 146.452 7.1083 146.59 7.04478C146.706 6.9992 146.812 6.92002 146.897 6.81412C146.957 6.7338 146.995 6.63451 147.008 6.52831C147.018 6.43137 147.024 6.34947 147.024 6.28428V4.26687H148.127V6.25587C148.127 6.46145 148.163 6.62358 148.233 6.74058C148.303 6.85758 148.386 6.94784 148.481 7.00801C148.569 7.06289 148.664 7.10015 148.762 7.11832C148.861 7.13504 148.934 7.14172 148.984 7.14172H149.357ZM143.675 11.4456C143.579 11.447 143.483 11.4244 143.393 11.3793C143.304 11.3341 143.224 11.2674 143.157 11.1832C143.086 11.1031 143.031 11.0061 142.993 10.8984C142.956 10.7908 142.937 10.6749 142.939 10.5581C142.939 10.3141 143.011 10.1068 143.157 9.93134C143.224 9.84747 143.304 9.78106 143.394 9.73621C143.483 9.69137 143.579 9.66903 143.675 9.67059C143.881 9.67059 144.054 9.75751 144.195 9.93134C144.339 10.1068 144.412 10.3158 144.412 10.5581C144.413 10.6747 144.395 10.7904 144.358 10.898C144.321 11.0056 144.265 11.1028 144.195 11.1832C144.128 11.2681 144.048 11.3353 143.958 11.3804C143.869 11.4256 143.772 11.4478 143.675 11.4456ZM152.521 6.97124L152.953 6.12048C153.104 5.82464 153.262 5.53715 153.427 5.25802C153.595 4.97388 153.774 4.70645 153.963 4.45574C154.15 4.20001 154.351 3.97771 154.562 3.78717C154.768 3.59628 154.995 3.44257 155.238 3.33087C155.484 3.21566 155.745 3.1578 156.009 3.16038C156.264 3.16038 156.515 3.21387 156.76 3.31917C157.006 3.41946 157.224 3.58325 157.415 3.80388C157.608 4.02451 157.761 4.31033 157.879 4.663C157.997 5.01065 158.055 5.43352 158.055 5.93328C158.059 6.34854 157.99 6.76005 157.854 7.14172H158.948V8.47385H153.064C152.944 8.47385 152.812 8.46048 152.672 8.43708C152.529 8.41236 152.387 8.37776 152.248 8.33345C152.115 8.28692 151.984 8.23225 151.855 8.16965C151.744 8.1136 151.639 8.04178 151.542 7.95571L151.467 7.88384C151.285 8.08608 151.071 8.23483 150.821 8.32676C150.537 8.42294 150.244 8.47242 149.949 8.47385H149.132V7.14172H149.914C150.091 7.14888 150.268 7.12466 150.438 7.06985C150.548 7.03124 150.649 6.96452 150.735 6.87429C150.8 6.80481 150.847 6.71433 150.871 6.61355C150.894 6.5225 150.906 6.42795 150.907 6.33275V4.27355H152.006V6.28595C152.006 6.37562 152.021 6.46439 152.051 6.5467C152.11 6.70565 152.211 6.83623 152.339 6.91775C152.395 6.95272 152.458 6.97105 152.521 6.97124ZM156.009 4.48583C155.779 4.4898 155.555 4.57209 155.363 4.72317C155.136 4.89726 154.928 5.10502 154.743 5.3416C154.532 5.6073 154.338 5.8923 154.164 6.19402C153.979 6.50992 153.806 6.82582 153.644 7.14172H155.948C156.043 7.14026 156.137 7.13021 156.231 7.11164C156.292 7.09492 156.353 7.0732 156.417 7.04478C156.482 7.01566 156.545 6.9787 156.604 6.93447V6.94115C156.731 6.83883 156.839 6.70629 156.921 6.55171C157.016 6.36564 157.067 6.15174 157.068 5.93328C157.068 5.68925 157.039 5.47865 156.982 5.29981C156.934 5.13052 156.857 4.97554 156.755 4.84518C156.663 4.72565 156.549 4.63401 156.422 4.57775C156.291 4.51578 156.15 4.48458 156.009 4.48583ZM161.617 3.40943L161.657 3.61L161.728 4.00613C161.757 4.16324 161.786 4.33874 161.813 4.52928C161.843 4.71982 161.871 4.91204 161.894 5.10593C161.921 5.29647 161.943 5.48367 161.96 5.66585C161.976 5.84302 161.985 6.00014 161.985 6.13385C161.985 6.53499 161.929 6.88265 161.818 7.1785C161.722 7.44555 161.58 7.68576 161.403 7.88418C161.226 8.08259 161.017 8.23495 160.789 8.33178C160.576 8.42407 160.351 8.47211 160.124 8.47385H158.762V7.14172H160.16C160.224 7.13948 160.288 7.13166 160.351 7.11832C160.443 7.10007 160.53 7.05848 160.608 6.99631C160.699 6.91731 160.774 6.813 160.825 6.69211C160.897 6.51846 160.93 6.32563 160.921 6.13218C160.921 6.0436 160.914 5.93161 160.9 5.7979C160.851 5.3409 160.784 4.8869 160.699 4.43736C160.678 4.30856 160.655 4.18038 160.629 4.05293L160.573 3.79385L161.617 3.40943ZM160.74 1.81823C160.643 1.8198 160.546 1.79732 160.457 1.75217C160.367 1.70703 160.287 1.64019 160.22 1.55581C160.15 1.47484 160.095 1.37764 160.058 1.27015C160.021 1.16266 160.002 1.04716 160.003 0.9307C160.003 0.683329 160.075 0.474401 160.22 0.303915C160.287 0.219839 160.368 0.15331 160.457 0.108457C160.547 0.0636045 160.643 0.0413832 160.74 0.0431721C160.836 0.0405989 160.932 0.0624697 161.022 0.107377C161.111 0.152284 161.191 0.219232 161.258 0.303915C161.329 0.384186 161.385 0.481459 161.422 0.589433C161.46 0.697407 161.478 0.813674 161.476 0.9307C161.476 1.17306 161.404 1.38199 161.258 1.55581C161.192 1.6408 161.111 1.70806 161.022 1.75326C160.933 1.79845 160.836 1.82059 160.74 1.81823ZM125.434 24.0031C125.488 24.3106 125.549 24.6666 125.616 25.0728C125.684 25.4773 125.745 25.8951 125.797 26.3247C125.858 26.7542 125.908 27.1704 125.948 27.5766C125.989 27.9811 126.009 28.3287 126.009 28.6212C126.009 29.4235 125.899 30.1205 125.677 30.7122C125.477 31.2672 125.182 31.7646 124.81 32.1713C124.465 32.5492 124.06 32.8391 123.619 33.0238C123.176 33.2076 122.732 33.3012 122.288 33.3012H111.107C110.616 33.3012 110.151 33.2009 109.715 32.9987C109.083 32.7079 108.532 32.2107 108.122 31.5629C107.971 31.3254 107.843 31.0687 107.739 30.7974C107.624 30.4966 107.531 30.1623 107.456 29.7896C107.379 29.3704 107.342 28.942 107.345 28.5126C107.345 28.0998 107.379 27.6501 107.447 27.1637C107.52 26.669 107.598 26.2027 107.678 25.7648C107.765 25.3202 107.85 24.9391 107.93 24.6232C108.011 24.2989 108.062 24.1 108.083 24.0265L110.189 24.8288C110.142 24.9993 110.082 25.2383 110.007 25.5475C109.941 25.8467 109.873 26.1743 109.806 26.5303C109.738 26.8796 109.679 27.2323 109.625 27.5883C109.577 27.9443 109.554 28.2535 109.554 28.5126C109.554 29.0073 109.618 29.3951 109.745 29.6792C109.88 29.9634 110.031 30.1773 110.199 30.3244C110.373 30.4615 110.549 30.5501 110.724 30.5918C110.899 30.6236 111.033 30.6403 111.126 30.6403H122.359C122.446 30.6403 122.574 30.6236 122.743 30.5902C122.927 30.5536 123.102 30.4711 123.257 30.3478C123.425 30.2108 123.569 30.0085 123.69 29.7411C123.817 29.4737 123.881 29.0993 123.881 28.6212C123.881 28.4207 123.865 28.1566 123.831 27.8323C123.795 27.4822 123.752 27.1334 123.701 26.786C123.647 26.4202 123.586 26.0558 123.519 25.6929C123.465 25.3635 123.408 25.0347 123.348 24.7068L125.434 24.0031ZM118.79 35.1498C119.18 35.1498 119.513 35.317 119.789 35.6479C119.922 35.8038 120.028 35.991 120.099 36.198C120.17 36.405 120.205 36.6273 120.202 36.8513C120.205 37.0753 120.17 37.2977 120.099 37.5047C120.028 37.7117 119.922 37.8989 119.789 38.0548C119.659 38.2155 119.504 38.3426 119.332 38.4283C119.16 38.5139 118.976 38.5563 118.79 38.5529C118.606 38.5556 118.423 38.5129 118.253 38.4272C118.083 38.3415 117.93 38.2148 117.802 38.0548C117.668 37.8989 117.563 37.7117 117.492 37.5047C117.421 37.2977 117.386 37.0753 117.389 36.8513C117.386 36.6273 117.421 36.405 117.492 36.198C117.563 35.991 117.668 35.8038 117.802 35.6479C117.93 35.4879 118.083 35.3611 118.253 35.2755C118.423 35.1898 118.606 35.1471 118.79 35.1498ZM114.727 35.1498C115.109 35.1498 115.439 35.317 115.715 35.6479C115.848 35.804 115.954 35.9913 116.025 36.1982C116.096 36.4052 116.131 36.6274 116.128 36.8513C116.128 37.321 115.99 37.7222 115.715 38.0548C115.587 38.2147 115.434 38.3414 115.264 38.4271C115.094 38.5127 114.911 38.5555 114.727 38.5529C114.541 38.5563 114.357 38.5139 114.185 38.4283C114.013 38.3426 113.858 38.2155 113.728 38.0548C113.595 37.8989 113.489 37.7117 113.418 37.5047C113.347 37.2977 113.312 37.0753 113.315 36.8513C113.312 36.6273 113.347 36.405 113.418 36.198C113.489 35.991 113.595 35.8038 113.728 35.6479C113.858 35.4872 114.013 35.3601 114.185 35.2744C114.357 35.1887 114.541 35.1463 114.727 35.1498ZM116.763 38.8437C117.127 38.8437 117.439 38.9991 117.701 39.3067C117.963 39.6242 118.094 40.0003 118.094 40.4366C118.098 40.6478 118.064 40.8575 117.996 41.0524C117.929 41.2472 117.828 41.4229 117.701 41.5681C117.58 41.7203 117.434 41.841 117.273 41.9226C117.112 42.0042 116.938 42.0452 116.763 42.0428C116.587 42.046 116.412 42.0055 116.248 41.9239C116.085 41.8422 115.938 41.7212 115.815 41.5681C115.691 41.4212 115.593 41.2452 115.527 41.0509C115.461 40.8566 115.429 40.6481 115.432 40.4382C115.431 40.2276 115.464 40.0186 115.531 39.8238C115.597 39.629 115.695 39.4521 115.819 39.3037C115.943 39.1553 116.091 39.0383 116.253 38.9595C116.415 38.8808 116.589 38.842 116.763 38.8454V38.8437ZM131.038 33.3012H128.831V15.773H131.038V33.3012ZM151.683 24.0031C151.736 24.3106 151.797 24.6666 151.864 25.0728C151.932 25.4773 151.993 25.8951 152.045 26.3247C152.106 26.7542 152.156 27.1704 152.196 27.5766C152.238 27.9811 152.257 28.3287 152.257 28.6212C152.257 29.4235 152.146 30.1205 151.925 30.7122C151.725 31.2672 151.43 31.7646 151.058 32.1713C150.713 32.5496 150.308 32.8395 149.867 33.0238C149.423 33.2076 148.98 33.3012 148.536 33.3012H137.355C136.864 33.3012 136.401 33.2009 135.963 32.9987C135.095 32.597 134.387 31.8091 133.987 30.7974C133.873 30.4966 133.779 30.1623 133.704 29.7896C133.627 29.3704 133.59 28.9419 133.593 28.5126C133.593 28.0998 133.628 27.6501 133.694 27.1637C133.768 26.669 133.846 26.2027 133.926 25.7648C134.013 25.3202 134.098 24.9391 134.178 24.6232C134.259 24.2989 134.31 24.1 134.329 24.0265L136.437 24.8288C136.39 24.9993 136.33 25.2383 136.255 25.5475C136.189 25.8467 136.121 26.1743 136.054 26.5303C135.986 26.8796 135.927 27.2323 135.873 27.5883C135.829 27.8937 135.805 28.2028 135.802 28.5126C135.802 29.0073 135.866 29.3951 135.993 29.6792C136.128 29.9634 136.279 30.1773 136.446 30.3244C136.623 30.4615 136.797 30.5501 136.972 30.5918C137.147 30.6236 137.281 30.6403 137.375 30.6403H148.607C148.694 30.6403 148.823 30.6236 148.991 30.5902C149.175 30.5536 149.35 30.4711 149.505 30.3478C149.673 30.2108 149.817 30.0085 149.938 29.7411C150.067 29.4737 150.131 29.0993 150.131 28.6212C150.131 28.4207 150.113 28.1566 150.079 27.8323C150.043 27.4822 150 27.1334 149.949 26.786C149.894 26.4202 149.834 26.0558 149.767 25.6929C149.713 25.3635 149.655 25.0347 149.595 24.7068L151.683 24.0031ZM143.112 39.0877C142.919 39.0908 142.727 39.046 142.548 38.956C142.37 38.866 142.208 38.7328 142.074 38.5645C141.933 38.4037 141.822 38.2093 141.748 37.9938C141.673 37.7782 141.636 37.5462 141.64 37.3126C141.64 36.8279 141.784 36.4101 142.074 36.0608C142.208 35.8928 142.37 35.7599 142.548 35.6702C142.727 35.5805 142.919 35.5359 143.112 35.5393C143.523 35.5393 143.868 35.7131 144.151 36.0608C144.439 36.4101 144.585 36.8279 144.585 37.3143C144.585 37.8074 144.439 38.2253 144.151 38.5645C144.017 38.7339 143.856 38.8679 143.677 38.958C143.499 39.0481 143.306 39.0923 143.112 39.0877ZM155.138 37.1672C156.181 37.1672 157.035 37.0787 157.7 36.8998C158.366 36.721 158.89 36.4418 159.273 36.0608C159.428 35.907 159.562 35.7415 159.676 35.5627C159.797 35.3922 159.895 35.195 159.969 34.9676C160.049 34.7487 160.11 34.5013 160.15 34.2255C160.197 33.9581 160.224 33.6506 160.231 33.3012H158.527C158.036 33.3012 157.538 33.221 157.035 33.0589C156.54 32.89 156.077 32.6049 155.673 32.2198C155.25 31.8003 154.909 31.2728 154.675 30.6754C154.42 30.0353 154.291 29.2463 154.291 28.3053C154.291 27.7538 154.329 27.2607 154.402 26.8228C154.473 26.4234 154.575 26.0329 154.706 25.6561C154.826 25.3068 154.961 25.0076 155.108 24.7569C155.256 24.5062 155.4 24.2856 155.542 24.1C155.926 23.6387 156.363 23.281 156.853 23.0303C157.36 22.7686 157.905 22.636 158.456 22.6409C158.954 22.6409 159.417 22.7345 159.848 22.9217C160.285 23.1072 160.674 23.3863 161.017 23.7591C161.481 24.2856 161.831 24.9508 162.066 25.7531C162.308 26.5553 162.428 27.5164 162.428 28.6346V33.119C162.428 33.704 162.392 34.2389 162.317 34.7236C162.251 35.1882 162.14 35.6415 161.985 36.0741C161.844 36.487 161.663 36.8597 161.441 37.1923C161.219 37.5316 160.957 37.8475 160.654 38.14C160.351 38.4242 160.019 38.6699 159.655 38.8821C159.293 39.0994 158.886 39.2783 158.435 39.417C157.945 39.5627 157.446 39.6638 156.943 39.7195C156.344 39.7966 155.741 39.8334 155.138 39.8298V37.1672ZM158.456 25.3035C157.838 25.3035 157.357 25.5625 157.014 26.0807C156.672 26.5921 156.5 27.3342 156.5 28.3053C156.5 28.7917 156.561 29.1845 156.681 29.4854C156.802 29.7862 156.981 30.0286 157.215 30.2141C157.33 30.3027 157.451 30.3762 157.578 30.4331C157.81 30.5171 158.045 30.5819 158.284 30.6269C158.385 30.6353 158.466 30.6403 158.527 30.6403H160.231V28.6346C160.231 28.0663 160.197 27.5933 160.129 27.2122C160.08 26.883 159.992 26.5639 159.867 26.2645C159.779 26.05 159.656 25.8594 159.504 25.7046C159.391 25.5767 159.257 25.4773 159.112 25.4121C158.992 25.3576 158.867 25.3249 158.739 25.3152C158.645 25.3081 158.55 25.3042 158.456 25.3035Z" fill="#2E2E2E"/>
<rect x="104.356" y="0.0429688" width="58.0713" height="41.9991" fill="#FDFDFD"/>
<path d="M104.298 19.1468L100.714 30.6348H99.1778L96.3778 22.1148C96.3138 21.9441 96.2578 21.7388 96.2098 21.4988C96.1512 21.7441 96.0952 21.9494 96.0418 22.1148L93.2098 30.6348H91.6818L88.0978 19.1468H89.5218C89.6712 19.1468 89.7965 19.1841 89.8978 19.2588C89.9992 19.3281 90.0658 19.4241 90.0978 19.5468L92.3618 27.2348C92.4045 27.3841 92.4418 27.5468 92.4738 27.7228C92.5112 27.8988 92.5485 28.0828 92.5858 28.2748C92.6232 28.0828 92.6605 27.8988 92.6978 27.7228C92.7405 27.5468 92.7885 27.3841 92.8418 27.2348L95.4338 19.5468C95.4658 19.4401 95.5325 19.3468 95.6338 19.2668C95.7405 19.1868 95.8658 19.1468 96.0098 19.1468H96.4978C96.6472 19.1468 96.7698 19.1841 96.8658 19.2588C96.9618 19.3334 97.0312 19.4294 97.0738 19.5468L99.6578 27.2348C99.7538 27.5281 99.8392 27.8614 99.9138 28.2348C99.9778 27.8668 100.047 27.5334 100.122 27.2348L102.394 19.5468C102.421 19.4401 102.487 19.3468 102.594 19.2668C102.701 19.1868 102.826 19.1468 102.97 19.1468H104.298ZM113.051 29.2508L113.043 30.6348H105.923V19.1468H113.043V20.5308H107.635V24.1708H111.987V25.5068H107.635V29.2508H113.051ZM119.261 29.2828C119.693 29.2828 120.061 29.2321 120.365 29.1308C120.675 29.0294 120.925 28.8908 121.117 28.7148C121.315 28.5388 121.459 28.3308 121.549 28.0908C121.64 27.8454 121.685 27.5788 121.685 27.2908C121.685 26.7201 121.488 26.2721 121.093 25.9468C120.699 25.6161 120.088 25.4508 119.261 25.4508H116.861V29.2828H119.261ZM116.861 20.4828V24.2428H118.821C119.659 24.2428 120.28 24.0748 120.685 23.7388C121.096 23.3974 121.301 22.9388 121.301 22.3628C121.301 21.7068 121.107 21.2294 120.717 20.9308C120.328 20.6321 119.723 20.4828 118.901 20.4828H116.861ZM118.901 19.1468C119.621 19.1468 120.237 19.2161 120.749 19.3548C121.267 19.4934 121.691 19.6934 122.021 19.9548C122.352 20.2161 122.595 20.5334 122.749 20.9068C122.909 21.2748 122.989 21.6934 122.989 22.1628C122.989 22.4401 122.947 22.7068 122.861 22.9628C122.776 23.2188 122.645 23.4588 122.469 23.6828C122.293 23.9014 122.072 24.0988 121.805 24.2748C121.539 24.4508 121.224 24.5974 120.861 24.7148C122.531 25.0454 123.365 25.9174 123.365 27.3308C123.365 27.8214 123.275 28.2694 123.093 28.6748C122.912 29.0748 122.648 29.4214 122.301 29.7148C121.955 30.0081 121.528 30.2348 121.021 30.3948C120.515 30.5548 119.939 30.6348 119.293 30.6348H115.157V19.1468H118.901ZM139.214 26.3548L137.51 21.8988C137.388 21.5948 137.265 21.2108 137.142 20.7468C137.084 20.9761 137.022 21.1894 136.958 21.3868C136.9 21.5841 136.841 21.7601 136.782 21.9148L135.086 26.3548H139.214ZM142.582 30.6348H141.27C141.121 30.6348 140.998 30.5974 140.902 30.5228C140.806 30.4481 140.737 30.3521 140.694 30.2348L139.678 27.5708H134.614L133.598 30.2348C133.561 30.3361 133.492 30.4294 133.39 30.5148C133.289 30.5948 133.166 30.6348 133.022 30.6348H131.71L136.286 19.1468H138.006L142.582 30.6348ZM147.497 25.0588C147.929 25.0588 148.307 25.0028 148.633 24.8908C148.963 24.7788 149.238 24.6214 149.457 24.4188C149.681 24.2108 149.849 23.9654 149.961 23.6828C150.073 23.3948 150.129 23.0774 150.129 22.7308C150.129 22.0321 149.91 21.4828 149.473 21.0828C149.041 20.6828 148.382 20.4828 147.497 20.4828H145.721V25.0588H147.497ZM147.497 19.1468C148.233 19.1468 148.873 19.2321 149.417 19.4028C149.961 19.5734 150.411 19.8161 150.769 20.1308C151.126 20.4401 151.39 20.8161 151.561 21.2588C151.737 21.7014 151.825 22.1921 151.825 22.7308C151.825 23.2694 151.731 23.7654 151.545 24.2188C151.358 24.6668 151.083 25.0534 150.721 25.3788C150.358 25.7041 149.905 25.9574 149.361 26.1388C148.822 26.3148 148.201 26.4028 147.497 26.4028H145.721V30.6348H144.017V19.1468H147.497ZM157.184 25.0588C157.616 25.0588 157.995 25.0028 158.32 24.8908C158.651 24.7788 158.925 24.6214 159.144 24.4188C159.368 24.2108 159.536 23.9654 159.648 23.6828C159.76 23.3948 159.816 23.0774 159.816 22.7308C159.816 22.0321 159.597 21.4828 159.16 21.0828C158.728 20.6828 158.069 20.4828 157.184 20.4828H155.408V25.0588H157.184ZM157.184 19.1468C157.92 19.1468 158.56 19.2321 159.104 19.4028C159.648 19.5734 160.099 19.8161 160.456 20.1308C160.813 20.4401 161.077 20.8161 161.248 21.2588C161.424 21.7014 161.512 22.1921 161.512 22.7308C161.512 23.2694 161.419 23.7654 161.232 24.2188C161.045 24.6668 160.771 25.0534 160.408 25.3788C160.045 25.7041 159.592 25.9574 159.048 26.1388C158.509 26.3148 157.888 26.4028 157.184 26.4028H155.408V30.6348H153.704V19.1468H157.184Z" fill="#2E2E2E"/>
</svg>
