<svg width="44" height="35" viewBox="0 0 44 35" fill="none" xmlns="http://www.w3.org/2000/svg">
<g clip-path="url(#clip0_9291_102592)">
<path fill-rule="evenodd" clip-rule="evenodd" d="M26.3186 19.6721C26.1851 19.672 26.057 19.6165 25.9626 19.5178C25.8681 19.4191 25.815 19.2853 25.8149 19.1457C25.8149 18.8905 25.8006 18.6743 25.7882 18.4826C25.7438 17.8084 25.7065 17.2263 26.3979 16.4831C26.4389 16.4393 26.4775 16.395 26.514 16.3496C27.4105 15.2494 27.3237 13.5242 27.2403 11.8556C27.2168 11.3836 27.1918 10.896 27.1918 10.4362C27.1937 10.2979 27.2477 10.1659 27.342 10.0689C27.4363 9.9718 27.5633 9.91739 27.6957 9.91739C27.828 9.91739 27.9551 9.9718 28.0494 10.0689C28.1437 10.1659 28.1976 10.2979 28.1996 10.4362C28.1996 10.8681 28.2218 11.3212 28.2464 11.8005C28.3363 13.5872 28.4377 15.6125 27.2805 17.0329C27.2289 17.0963 27.1752 17.1574 27.1192 17.2177C26.7417 17.6227 26.7539 17.8055 26.7932 18.4108C26.8068 18.6196 26.8226 18.8586 26.8226 19.145C26.8227 19.2142 26.8097 19.2827 26.7844 19.3466C26.7591 19.4105 26.722 19.4686 26.6752 19.5175C26.6285 19.5664 26.5729 19.6053 26.5117 19.6317C26.4506 19.6582 26.385 19.6718 26.3189 19.6718L26.3186 19.6721ZM19.7578 19.6721C19.6242 19.672 19.4961 19.6166 19.4016 19.5179C19.3071 19.4192 19.2539 19.2853 19.2538 19.1457C19.2538 18.961 19.2699 18.7586 19.2871 18.5439C19.3036 18.3326 19.3321 17.9755 19.3148 17.7744C18.8272 17.7326 18.0601 17.5374 17.394 16.8007C16.4971 15.807 16.0827 14.1572 16.1629 11.8957C16.0764 11.1116 15.7227 9.01716 15.0489 8.1294C14.6038 7.54246 14.7803 7.08524 14.8769 6.91643C15.105 6.5164 15.6005 6.34389 16.2006 6.45492C17.2823 6.6547 18.7099 7.79155 19.1733 10.3384C19.1857 10.4063 19.1852 10.4762 19.1717 10.5439C19.1583 10.6116 19.1322 10.6759 19.095 10.7331C19.0578 10.7903 19.0102 10.8393 18.9548 10.8773C18.8995 10.9153 18.8375 10.9415 18.7725 10.9544C18.7075 10.9674 18.6406 10.9668 18.5758 10.9528C18.511 10.9387 18.4495 10.9115 18.3947 10.8726C18.34 10.8337 18.2931 10.7839 18.2567 10.7261C18.2204 10.6683 18.1953 10.6036 18.1829 10.5356C17.8117 8.49601 16.8122 7.81615 16.3997 7.61869C16.1572 7.50267 15.9609 7.47366 15.8388 7.47622C16.8441 8.80207 17.1557 11.6969 17.1682 11.8193C17.1709 11.8451 17.1718 11.871 17.1709 11.8968C17.0965 13.8575 17.4272 15.3031 18.1265 16.0778C18.6267 16.6319 19.2082 16.7247 19.5103 16.7306C19.615 16.7317 19.7184 16.7554 19.814 16.8002C19.9095 16.8451 19.9951 16.9101 20.0654 16.9913C20.3907 17.3671 20.343 17.9809 20.2908 18.6308C20.2763 18.8165 20.2616 18.9955 20.2616 19.1455C20.2617 19.2148 20.2487 19.2833 20.2233 19.3473C20.198 19.4113 20.1608 19.4694 20.1139 19.5184C20.067 19.5673 20.0113 19.6061 19.95 19.6324C19.8887 19.6588 19.8231 19.6723 19.7568 19.6721H19.7578Z" fill="#FDFDFD"/>
<path fill-rule="evenodd" clip-rule="evenodd" d="M18.6779 10.9626C18.5443 10.9626 18.4161 10.9071 18.3216 10.8084C18.2271 10.7096 18.1739 10.5758 18.1738 10.4361V4.18879C18.1738 3.24905 18.9057 2.48438 19.8051 2.48438C20.7044 2.48438 21.436 3.24893 21.436 4.18879C21.434 4.32709 21.3801 4.45902 21.2858 4.55609C21.1915 4.65316 21.0644 4.70758 20.9321 4.70758C20.7997 4.70758 20.6727 4.65316 20.5784 4.55609C20.4841 4.45902 20.4301 4.32709 20.4282 4.18879C20.4293 4.10255 20.414 4.01694 20.3831 3.93693C20.3523 3.85692 20.3066 3.7841 20.2486 3.72271C20.1907 3.66132 20.1216 3.61257 20.0454 3.5793C19.9693 3.54602 19.8876 3.52889 19.805 3.52889C19.7225 3.52889 19.6408 3.54602 19.5646 3.5793C19.4885 3.61257 19.4194 3.66132 19.3614 3.72271C19.3034 3.7841 19.2577 3.85692 19.2269 3.93693C19.1961 4.01694 19.1808 4.10255 19.1819 4.18879V10.4361C19.1819 10.5053 19.1688 10.5737 19.1435 10.6376C19.1182 10.7015 19.0811 10.7595 19.0343 10.8084C18.9875 10.8573 18.9319 10.8961 18.8708 10.9226C18.8096 10.949 18.7441 10.9626 18.6779 10.9626Z" fill="#FDFDFD"/>
<path fill-rule="evenodd" clip-rule="evenodd" d="M20.9318 9.20846C20.7982 9.20839 20.67 9.1529 20.5755 9.05416C20.481 8.95541 20.4278 8.82151 20.4277 8.68185V2.45832C20.4277 1.51858 21.1594 0.753906 22.0591 0.753906C22.9588 0.753906 23.6902 1.51846 23.6902 2.45832V3.9937C23.6912 4.0635 23.6789 4.13282 23.654 4.19761C23.6292 4.2624 23.5922 4.32138 23.5453 4.3711C23.4984 4.42083 23.4425 4.46033 23.3809 4.48728C23.3193 4.51424 23.2531 4.52812 23.1863 4.52812C23.1195 4.52812 23.0534 4.51424 22.9917 4.48728C22.9301 4.46033 22.8742 4.42083 22.8273 4.3711C22.7804 4.32138 22.7435 4.2624 22.7186 4.19761C22.6937 4.13282 22.6814 4.0635 22.6824 3.9937V2.45832C22.6802 2.28713 22.6136 2.12373 22.497 2.00348C22.3804 1.88323 22.2231 1.81581 22.0593 1.81581C21.8954 1.81581 21.7382 1.88323 21.6215 2.00348C21.5049 2.12373 21.4383 2.28713 21.4361 2.45832V8.68185C21.436 8.82154 21.3828 8.95546 21.2883 9.0542C21.1937 9.15294 21.0655 9.20842 20.9318 9.20846Z" fill="#FDFDFD"/>
<path fill-rule="evenodd" clip-rule="evenodd" d="M25.4416 9.20822C25.308 9.20813 25.1798 9.15261 25.0854 9.05387C24.9909 8.95513 24.9379 8.82123 24.9378 8.68162V3.3918C24.9356 3.22064 24.869 3.05726 24.7524 2.93704C24.6358 2.81681 24.4786 2.7494 24.3148 2.7494C24.151 2.7494 23.9937 2.81681 23.8771 2.93704C23.7605 3.05726 23.6939 3.22064 23.6917 3.3918V8.68162C23.6917 8.82131 23.6386 8.95529 23.5441 9.05407C23.4496 9.15285 23.3214 9.20834 23.1877 9.20834C23.054 9.20834 22.9258 9.15285 22.8312 9.05407C22.7367 8.95529 22.6836 8.82131 22.6836 8.68162V3.3918C22.6836 2.45206 23.4164 1.6875 24.3152 1.6875C25.214 1.6875 25.9463 2.45229 25.9463 3.3918V8.68162C25.9461 8.82135 25.8928 8.95527 25.7982 9.054C25.7035 9.15273 25.5753 9.20819 25.4416 9.20822Z" fill="#FDFDFD"/>
<path fill-rule="evenodd" clip-rule="evenodd" d="M27.6954 10.9615C27.5617 10.9615 27.4336 10.906 27.339 10.8073C27.2445 10.7086 27.1914 10.5747 27.1913 10.435V5.70488C27.1913 5.61939 27.1752 5.53474 27.1439 5.45576C27.1126 5.37678 27.0667 5.30502 27.0088 5.24457C26.951 5.18412 26.8823 5.13617 26.8067 5.10346C26.7311 5.07074 26.6501 5.0539 26.5683 5.0539C26.4865 5.0539 26.4055 5.07074 26.3299 5.10346C26.2543 5.13617 26.1856 5.18412 26.1278 5.24457C26.0699 5.30502 26.024 5.37678 25.9927 5.45576C25.9614 5.53474 25.9453 5.61939 25.9453 5.70488C25.9433 5.84317 25.8894 5.97511 25.7951 6.07218C25.7008 6.16925 25.5738 6.22367 25.4414 6.22367C25.309 6.22367 25.182 6.16925 25.0877 6.07218C24.9934 5.97511 24.9395 5.84317 24.9375 5.70488C24.9375 4.76514 25.6695 4 26.569 4C27.4684 4 28.1998 4.76456 28.1998 5.70488V10.435C28.1996 10.5747 28.1464 10.7086 28.0518 10.8073C27.9572 10.906 27.829 10.9615 27.6954 10.9615Z" fill="#FDFDFD"/>
<path fill-rule="evenodd" clip-rule="evenodd" d="M21.6948 14.257C21.5816 14.2569 21.4717 14.217 21.3829 14.1437C21.2941 14.0704 21.2314 13.968 21.2051 13.8529C20.4992 10.7669 18.759 10.9592 18.7402 10.9605C18.4651 10.9992 18.2124 10.7919 18.1777 10.5035C18.1695 10.4349 18.1743 10.3653 18.1919 10.2986C18.2094 10.2319 18.2393 10.1695 18.28 10.1149C18.3206 10.0604 18.3711 10.0147 18.4286 9.98051C18.4861 9.94633 18.5495 9.92433 18.6152 9.91575C18.7237 9.90113 21.2719 9.61735 22.1849 13.6084C22.2159 13.7441 22.1941 13.8871 22.1243 14.0061C22.0544 14.125 21.9422 14.2102 21.8124 14.2427C21.7738 14.2521 21.7344 14.2569 21.6948 14.257Z" fill="#FDFDFD"/>
<path fill-rule="evenodd" clip-rule="evenodd" d="M26.3197 34.0142H19.7579C19.6243 34.0142 19.4961 33.9587 19.4017 33.86C19.3072 33.7613 19.254 33.6275 19.2539 33.4879V19.1439C19.2539 19.0042 19.307 18.8703 19.4015 18.7715C19.496 18.6728 19.6242 18.6172 19.7579 18.6172H26.3197C26.4534 18.6172 26.5816 18.6728 26.6761 18.7715C26.7706 18.8703 26.8237 19.0042 26.8238 19.1439V33.4875C26.8238 33.6272 26.7706 33.7612 26.6761 33.8599C26.5816 33.9587 26.4534 34.0142 26.3197 34.0142ZM20.2622 32.961H25.8154V19.6703H20.2622V32.961Z" fill="#FDFDFD"/>
<path fill-rule="evenodd" clip-rule="evenodd" d="M23.5518 21.2881C23.5518 21.1816 23.5215 21.0776 23.4649 20.9891C23.4083 20.9006 23.3278 20.8316 23.2336 20.7909C23.1395 20.7502 23.0359 20.7396 22.936 20.7604C22.8361 20.7812 22.7443 20.8325 22.6723 20.9078C22.6002 20.9831 22.5512 21.079 22.5314 21.1835C22.5115 21.2879 22.5217 21.3961 22.5608 21.4945C22.5998 21.5928 22.6658 21.6769 22.7505 21.736C22.8353 21.7951 22.9349 21.8267 23.0368 21.8266C23.1734 21.8264 23.3043 21.7696 23.4008 21.6686C23.4974 21.5677 23.5517 21.4308 23.5518 21.2881Z" fill="#FDFDFD"/>
<path fill-rule="evenodd" clip-rule="evenodd" d="M23.5518 23.7417C23.5519 23.6352 23.5217 23.5311 23.4651 23.4425C23.4085 23.354 23.3281 23.2849 23.2339 23.2442C23.1398 23.2034 23.0362 23.1927 22.9363 23.2134C22.8363 23.2342 22.7445 23.2855 22.6724 23.3608C22.6003 23.436 22.5513 23.532 22.5314 23.6364C22.5115 23.7409 22.5217 23.8491 22.5607 23.9475C22.5997 24.0459 22.6658 24.1299 22.7505 24.1891C22.8352 24.2482 22.9349 24.2798 23.0368 24.2798C23.1732 24.2794 23.304 24.2226 23.4006 24.1218C23.4971 24.0209 23.5515 23.8843 23.5518 23.7417Z" fill="#FDFDFD"/>
<path fill-rule="evenodd" clip-rule="evenodd" d="M23.5518 26.1947C23.5519 26.0882 23.5217 25.9841 23.4651 25.8956C23.4085 25.807 23.328 25.738 23.2339 25.6972C23.1397 25.6565 23.0361 25.6458 22.9362 25.6666C22.8362 25.6874 22.7444 25.7386 22.6724 25.8139C22.6003 25.8892 22.5513 25.9851 22.5314 26.0896C22.5115 26.194 22.5217 26.3023 22.5607 26.4006C22.5997 26.499 22.6658 26.5831 22.7505 26.6422C22.8353 26.7014 22.9349 26.7329 23.0368 26.7329C23.1733 26.7326 23.3042 26.6758 23.4007 26.575C23.4972 26.4741 23.5516 26.3373 23.5518 26.1947Z" fill="#FDFDFD"/>
<path fill-rule="evenodd" clip-rule="evenodd" d="M23.5518 28.6479C23.5519 28.5414 23.5217 28.4373 23.4651 28.3488C23.4085 28.2602 23.3281 28.1912 23.2339 28.1504C23.1398 28.1096 23.0362 28.0989 22.9363 28.1197C22.8363 28.1405 22.7445 28.1917 22.6724 28.267C22.6003 28.3423 22.5513 28.4382 22.5314 28.5427C22.5115 28.6471 22.5217 28.7554 22.5607 28.8537C22.5997 28.9521 22.6658 29.0362 22.7505 29.0953C22.8352 29.1545 22.9349 29.186 23.0368 29.186C23.1733 29.1858 23.3041 29.129 23.4007 29.0282C23.4972 28.9273 23.5516 28.7906 23.5518 28.6479Z" fill="#FDFDFD"/>
<path fill-rule="evenodd" clip-rule="evenodd" d="M26.3194 31.3188H19.7575C19.6907 31.3198 19.6244 31.307 19.5624 31.281C19.5004 31.255 19.4439 31.2163 19.3964 31.1673C19.3488 31.1184 19.311 31.06 19.2852 30.9956C19.2594 30.9312 19.2461 30.862 19.2461 30.7922C19.2461 30.7224 19.2594 30.6533 19.2852 30.5889C19.311 30.5245 19.3488 30.4661 19.3964 30.4171C19.4439 30.3681 19.5004 30.3295 19.5624 30.3035C19.6244 30.2775 19.6907 30.2646 19.7575 30.2657H26.3194C26.3862 30.2646 26.4525 30.2775 26.5145 30.3035C26.5765 30.3295 26.633 30.3681 26.6806 30.4171C26.7282 30.4661 26.766 30.5245 26.7918 30.5889C26.8175 30.6533 26.8308 30.7224 26.8308 30.7922C26.8308 30.862 26.8175 30.9312 26.7918 30.9956C26.766 31.06 26.7282 31.1184 26.6806 31.1673C26.633 31.2163 26.5765 31.255 26.5145 31.281C26.4525 31.307 26.3862 31.3198 26.3194 31.3188Z" fill="#FDFDFD"/>
<path fill-rule="evenodd" clip-rule="evenodd" d="M11.5864 34.0145H5.02534C4.89175 34.0144 4.76366 33.9589 4.6692 33.8602C4.57473 33.7615 4.5216 33.6277 4.52148 33.4881V26.3158C4.52151 26.1761 4.5746 26.0422 4.66908 25.9435C4.76356 25.8447 4.8917 25.7892 5.02534 25.7891H11.5864C11.72 25.7892 11.8481 25.8448 11.9426 25.9435C12.0371 26.0423 12.0902 26.1762 12.0903 26.3158V33.4878C12.0903 33.5569 12.0773 33.6254 12.052 33.6893C12.0267 33.7532 11.9896 33.8113 11.9428 33.8602C11.896 33.9091 11.8404 33.9479 11.7793 33.9744C11.7181 34.0009 11.6526 34.0145 11.5864 34.0145ZM5.5293 32.9613H11.0823V26.8428H5.5293V32.9613Z" fill="#FDFDFD"/>
<path fill-rule="evenodd" clip-rule="evenodd" d="M11.5867 26.8445C11.453 26.8444 11.3249 26.7889 11.2304 26.6901C11.1359 26.5913 11.0827 26.4574 11.0826 26.3178C11.0826 26.0626 11.0684 25.8464 11.0557 25.6546C11.012 24.9805 10.9742 24.398 11.6657 23.6552C11.7056 23.6127 11.7443 23.5681 11.7811 23.5227C12.678 22.4215 12.5916 20.6966 12.508 19.0279C12.4846 18.5559 12.4599 18.068 12.4599 17.6085C12.4589 17.5387 12.4712 17.4693 12.4961 17.4046C12.521 17.3398 12.558 17.2808 12.6048 17.2311C12.6517 17.1813 12.7076 17.1418 12.7693 17.1149C12.8309 17.0879 12.897 17.074 12.9638 17.074C13.0306 17.074 13.0968 17.0879 13.1584 17.1149C13.2201 17.1418 13.2759 17.1813 13.3228 17.2311C13.3697 17.2808 13.4067 17.3398 13.4316 17.4046C13.4564 17.4693 13.4687 17.5387 13.4677 17.6085C13.4677 18.0402 13.4906 18.4933 13.5147 18.9723C13.6043 20.7589 13.706 22.7846 12.5488 24.2056C12.4978 24.268 12.4445 24.3292 12.3888 24.3891C12.0103 24.7952 12.0224 24.9779 12.0613 25.5835C12.0749 25.7935 12.0904 26.0317 12.0904 26.3178C12.0904 26.4574 12.0373 26.5913 11.9428 26.6901C11.8483 26.7888 11.7202 26.8444 11.5866 26.8445H11.5867ZM5.02561 26.8445C4.89199 26.8444 4.76388 26.7888 4.66941 26.6901C4.57495 26.5913 4.52184 26.4574 4.52176 26.3178C4.52176 26.1331 4.53774 25.9306 4.55451 25.7164C4.57139 25.505 4.59948 25.1468 4.58216 24.9461C4.09507 24.9047 3.32752 24.7101 2.66245 23.9731C1.765 22.9793 1.35086 21.3292 1.43058 19.0676C1.34398 18.2835 0.99046 16.189 0.316732 15.3011C-0.128719 14.7142 0.0479291 14.2576 0.144414 14.0881C0.37258 13.6881 0.868327 13.5157 1.46822 13.6269C2.54987 13.8264 3.97749 14.9633 4.44104 17.5107C4.46607 17.6479 4.4379 17.7899 4.36273 17.9054C4.28756 18.021 4.17155 18.1006 4.04022 18.1267C3.90889 18.1529 3.77299 18.1234 3.66243 18.0449C3.55186 17.9663 3.47568 17.8451 3.45065 17.7079C3.07937 15.6681 2.07999 14.9887 1.6673 14.7912C1.42481 14.6752 1.23006 14.6493 1.10626 14.6486C2.11175 15.9745 2.42319 18.8695 2.43584 18.9923C2.43858 19.0181 2.43944 19.044 2.4384 19.0698C2.36501 21.0305 2.69554 22.4759 3.39514 23.2504C3.89533 23.8043 4.47657 23.8967 4.77857 23.9028C4.88329 23.9038 4.98667 23.9274 5.08221 23.9722C5.17775 24.017 5.26338 24.082 5.33372 24.1631C5.65892 24.5391 5.61018 25.1526 5.55877 25.8033C5.54412 25.9889 5.52946 26.1675 5.52946 26.3179C5.52931 26.4575 5.47619 26.5913 5.38173 26.6901C5.28727 26.7888 5.1592 26.8443 5.02561 26.8445Z" fill="#FDFDFD"/>
<path fill-rule="evenodd" clip-rule="evenodd" d="M3.94526 18.1344C3.81168 18.1343 3.68359 18.0788 3.58912 17.9801C3.49465 17.8814 3.44152 17.7476 3.44141 17.608V11.3605C3.44141 10.4208 4.17309 9.65625 5.07254 9.65625C5.97199 9.65625 6.70357 10.4208 6.70357 11.3605C6.7016 11.4988 6.64765 11.6308 6.55336 11.7278C6.45907 11.8249 6.33202 11.8793 6.19966 11.8793C6.0673 11.8793 5.94025 11.8249 5.84596 11.7278C5.75167 11.6308 5.69772 11.4988 5.69575 11.3605C5.69357 11.1893 5.62694 11.0259 5.51029 10.9056C5.39364 10.7854 5.23636 10.7179 5.07249 10.7179C4.90861 10.7179 4.75133 10.7854 4.63468 10.9056C4.51804 11.0259 4.45141 11.1893 4.44922 11.3605V17.608C4.44921 17.6771 4.43616 17.7456 4.41083 17.8094C4.38549 17.8733 4.34837 17.9313 4.30157 17.9802C4.25477 18.0291 4.19922 18.0679 4.13808 18.0943C4.07695 18.1208 4.01143 18.1344 3.94526 18.1344Z" fill="#FDFDFD"/>
<path fill-rule="evenodd" clip-rule="evenodd" d="M6.19928 16.3802C6.06564 16.3802 5.93749 16.3247 5.84299 16.226C5.74849 16.1273 5.69537 15.9934 5.69531 15.8537V9.62996C5.69531 8.69022 6.427 7.92578 7.32678 7.92578C8.22657 7.92578 8.95781 8.69034 8.95781 9.62996V11.1659C8.95584 11.3042 8.90189 11.4362 8.8076 11.5332C8.71331 11.6303 8.58626 11.6847 8.4539 11.6847C8.32154 11.6847 8.19448 11.6303 8.1002 11.5332C8.00591 11.4362 7.95196 11.3042 7.94999 11.1659V9.62996C7.94999 9.45719 7.88431 9.2915 7.76739 9.16933C7.65048 9.04716 7.4919 8.97852 7.32656 8.97852C7.16122 8.97852 7.00264 9.04716 6.88573 9.16933C6.76881 9.2915 6.70313 9.45719 6.70313 9.62996V15.8537C6.70313 15.9934 6.65004 16.1273 6.55555 16.226C6.46106 16.3247 6.33291 16.3802 6.19928 16.3802Z" fill="#FDFDFD"/>
<path fill-rule="evenodd" clip-rule="evenodd" d="M10.7093 16.38C10.5757 16.3799 10.4475 16.3244 10.3531 16.2257C10.2586 16.127 10.2055 15.9931 10.2055 15.8535V10.5638C10.2066 10.4775 10.1913 10.3919 10.1605 10.3119C10.1297 10.2319 10.0839 10.159 10.0259 10.0976C9.96795 10.0362 9.89887 9.98747 9.82271 9.95419C9.74654 9.92091 9.66481 9.90377 9.58225 9.90377C9.4997 9.90377 9.41796 9.92091 9.3418 9.95419C9.26563 9.98747 9.19655 10.0362 9.13857 10.0976C9.08058 10.159 9.03485 10.2319 9.00402 10.3119C8.97319 10.3919 8.95789 10.4775 8.95899 10.5638V15.8535C8.95702 15.9918 8.90307 16.1237 8.80878 16.2208C8.71449 16.3179 8.58744 16.3723 8.45508 16.3723C8.32272 16.3723 8.19567 16.3179 8.10138 16.2208C8.00709 16.1237 7.95314 15.9918 7.95117 15.8535V10.5638C7.95117 9.62405 8.68264 8.85938 9.5822 8.85938C10.4818 8.85938 11.2131 9.62393 11.2131 10.5638V15.8535C11.2131 15.9931 11.16 16.127 11.0655 16.2258C10.971 16.3245 10.8429 16.38 10.7093 16.38Z" fill="#FDFDFD"/>
<path fill-rule="evenodd" clip-rule="evenodd" d="M12.9651 18.1334C12.8315 18.1333 12.7034 18.0779 12.6089 17.9792C12.5144 17.8805 12.4613 17.7466 12.4612 17.607V12.8768C12.4623 12.7905 12.447 12.7049 12.4161 12.6249C12.3853 12.5449 12.3396 12.4721 12.2816 12.4107C12.2236 12.3493 12.1546 12.3005 12.0784 12.2673C12.0023 12.234 11.9205 12.2169 11.838 12.2169C11.7555 12.2169 11.6737 12.234 11.5976 12.2673C11.5214 12.3005 11.4524 12.3493 11.3944 12.4107C11.3364 12.4721 11.2907 12.5449 11.2599 12.6249C11.2291 12.7049 11.2137 12.7905 11.2148 12.8768C11.2129 13.015 11.1589 13.147 11.0646 13.2441C10.9704 13.3411 10.8433 13.3955 10.7109 13.3955C10.5786 13.3955 10.4515 13.3411 10.3572 13.2441C10.263 13.147 10.209 13.015 10.207 12.8768C10.207 11.937 10.9387 11.1719 11.8381 11.1719C12.7374 11.1719 13.469 11.9364 13.469 12.8768V17.607C13.469 17.6762 13.4559 17.7446 13.4306 17.8085C13.4053 17.8724 13.3682 17.9304 13.3214 17.9793C13.2746 18.0281 13.2191 18.0669 13.1579 18.0934C13.0968 18.1198 13.0313 18.1334 12.9651 18.1334Z" fill="#FDFDFD"/>
<path fill-rule="evenodd" clip-rule="evenodd" d="M6.96287 21.4289C6.8497 21.4288 6.73984 21.389 6.65101 21.3157C6.56218 21.2424 6.49955 21.14 6.47323 21.025C5.77774 17.9863 4.07199 18.1255 4.00127 18.1332C3.8696 18.1475 3.73784 18.1071 3.63446 18.0207C3.53108 17.9343 3.46439 17.8088 3.44882 17.6715C3.43324 17.5341 3.47002 17.3958 3.55121 17.2866C3.63239 17.1773 3.75147 17.1059 3.88269 17.0876C3.99083 17.073 6.53929 16.7894 7.45273 20.7803C7.46814 20.8475 7.47072 20.9173 7.46033 20.9855C7.44994 21.0538 7.42678 21.1192 7.39218 21.1781C7.35758 21.237 7.31221 21.2882 7.25866 21.3288C7.20512 21.3694 7.14445 21.3985 7.08012 21.4146C7.04169 21.424 7.00235 21.4288 6.96287 21.4289Z" fill="#FDFDFD"/>
<path fill-rule="evenodd" clip-rule="evenodd" d="M41.0493 34.0145H34.4885C34.3548 34.0144 34.2267 33.9589 34.1322 33.8603C34.0377 33.7616 33.9845 33.6277 33.9844 33.4881V26.3158C33.9844 26.1761 34.0376 26.0422 34.1321 25.9434C34.2266 25.8446 34.3548 25.7891 34.4885 25.7891H41.0493C41.183 25.7892 41.3111 25.8447 41.4056 25.9435C41.5001 26.0422 41.5533 26.1761 41.5534 26.3158V33.4878C41.5533 33.6274 41.5002 33.7613 41.4056 33.8601C41.3111 33.9589 41.183 34.0144 41.0493 34.0145ZM34.9922 32.9613H40.5452V26.8428H34.9922V32.9613Z" fill="#FDFDFD"/>
<path fill-rule="evenodd" clip-rule="evenodd" d="M41.0498 26.8441C40.9162 26.8439 40.7881 26.7884 40.6937 26.6896C40.5992 26.5908 40.5462 26.457 40.5461 26.3173C40.5461 26.0621 40.5318 25.846 40.5194 25.6542C40.475 24.98 40.4377 24.3979 41.1291 23.6551C41.1697 23.6116 41.2081 23.5669 41.2453 23.5215C42.1417 22.421 42.0549 20.6958 41.9712 19.0278C41.948 18.5561 41.923 18.068 41.923 17.6084C41.922 17.5386 41.9343 17.4692 41.9592 17.4045C41.984 17.3397 42.021 17.2807 42.0679 17.231C42.1148 17.1812 42.1707 17.1417 42.2323 17.1148C42.2939 17.0878 42.3601 17.0739 42.4269 17.0739C42.4937 17.0739 42.5598 17.0878 42.6215 17.1148C42.6831 17.1417 42.739 17.1812 42.7859 17.231C42.8328 17.2807 42.8697 17.3397 42.8946 17.4045C42.9195 17.4692 42.9318 17.5386 42.9308 17.6084C42.9308 18.0405 42.953 18.4932 42.9773 18.9725C43.0674 20.7592 43.1685 22.7845 42.0114 24.2049C41.9602 24.2684 41.9064 24.3295 41.8508 24.3895C41.4727 24.7955 41.4844 24.9776 41.524 25.5828C41.5377 25.7928 41.5535 26.031 41.5535 26.3175C41.5534 26.457 41.5003 26.5909 41.4058 26.6896C41.3114 26.7882 41.1833 26.8437 41.0497 26.8438L41.0498 26.8441ZM34.489 26.8441C34.3553 26.8439 34.2272 26.7884 34.1327 26.6896C34.0382 26.5909 33.985 26.457 33.9849 26.3173C33.9849 26.1326 34.001 25.9302 34.0182 25.7159C34.0352 25.5045 34.0633 25.1464 34.0459 24.9457C33.5582 24.9042 32.7912 24.7097 32.1251 23.9726C31.2283 22.9792 30.8134 21.3294 30.8934 19.0675C30.8072 18.2834 30.4532 16.1888 29.7797 15.301C29.3343 14.7141 29.5106 14.2568 29.6073 14.0882C29.836 13.688 30.3311 13.5162 30.9309 13.6265C32.0129 13.8263 33.4402 14.9632 33.9039 17.5102C33.9287 17.6474 33.9004 17.7893 33.8253 17.9048C33.7501 18.0203 33.6342 18.0999 33.5029 18.1261C33.2312 18.1772 32.9661 17.9926 32.9135 17.707C32.5426 15.6677 31.543 14.9882 31.1306 14.7905C30.8878 14.6745 30.6903 14.6485 30.5694 14.6478C31.5745 15.9739 31.8861 18.8689 31.8991 18.9918C31.9018 19.0175 31.9026 19.0434 31.9016 19.0693C31.8277 21.03 32.1581 22.4756 32.8574 23.2505C33.358 23.8044 33.9391 23.8972 34.2407 23.903C34.3454 23.9039 34.4488 23.9276 34.5444 23.9723C34.6399 24.0171 34.7256 24.0821 34.7959 24.1632C35.1212 24.5394 35.0727 25.1532 35.0215 25.8035C35.0067 25.9891 34.9921 26.168 34.9921 26.3177C34.9919 26.4571 34.9388 26.5908 34.8445 26.6894C34.7502 26.7881 34.6224 26.8437 34.489 26.8441Z" fill="#FDFDFD"/>
<path fill-rule="evenodd" clip-rule="evenodd" d="M33.4084 18.1344C33.2748 18.1343 33.1466 18.0788 33.0521 17.9801C32.9576 17.8814 32.9044 17.7476 32.9043 17.608V11.3605C32.9043 10.4208 33.636 9.65625 34.5354 9.65625C35.4349 9.65625 36.1669 10.4208 36.1669 11.3605C36.1649 11.4988 36.111 11.6308 36.0167 11.7278C35.9224 11.8249 35.7954 11.8793 35.663 11.8793C35.5306 11.8793 35.4036 11.8249 35.3093 11.7278C35.215 11.6308 35.1611 11.4988 35.1591 11.3605C35.1602 11.2743 35.1449 11.1887 35.1141 11.1087C35.0832 11.0287 35.0375 10.9559 34.9795 10.8945C34.9216 10.8331 34.8525 10.7843 34.7763 10.7511C34.7002 10.7178 34.6185 10.7006 34.5359 10.7006C34.4534 10.7006 34.3717 10.7178 34.2955 10.7511C34.2194 10.7843 34.1503 10.8331 34.0923 10.8945C34.0344 10.9559 33.9886 11.0287 33.9578 11.1087C33.927 11.1887 33.9117 11.2743 33.9128 11.3605V17.608C33.9125 17.7476 33.8593 17.8814 33.7647 17.9801C33.6702 18.0788 33.542 18.1343 33.4084 18.1344Z" fill="#FDFDFD"/>
<path fill-rule="evenodd" clip-rule="evenodd" d="M35.6639 16.3802C35.5303 16.3802 35.4022 16.3247 35.3077 16.2259C35.2133 16.1272 35.1602 15.9933 35.1602 15.8537V9.62996C35.1602 8.69022 35.8918 7.92578 36.791 7.92578C37.6901 7.92578 38.4224 8.69034 38.4224 9.62996V11.1659C38.4205 11.3042 38.3665 11.4362 38.2722 11.5332C38.1779 11.6303 38.0509 11.6847 37.9185 11.6847C37.7862 11.6847 37.6591 11.6303 37.5648 11.5332C37.4705 11.4362 37.4166 11.3042 37.4146 11.1659V9.62996C37.4146 9.45731 37.349 9.29174 37.2321 9.16965C37.1153 9.04757 36.9569 8.97899 36.7916 8.97899C36.6264 8.97899 36.4679 9.04757 36.3511 9.16965C36.2343 9.29174 36.1686 9.45731 36.1686 9.62996V15.8537C36.1683 15.9934 36.1149 16.1272 36.0203 16.2259C35.9257 16.3246 35.7976 16.3801 35.6639 16.3802Z" fill="#FDFDFD"/>
<path fill-rule="evenodd" clip-rule="evenodd" d="M40.1719 16.38C40.0383 16.3799 39.9102 16.3244 39.8158 16.2257C39.7213 16.127 39.6682 15.9931 39.6682 15.8535V10.5638C39.6682 10.3911 39.6025 10.2254 39.4857 10.1033C39.3688 9.98119 39.2103 9.91258 39.045 9.91258C38.8797 9.91258 38.7212 9.98119 38.6043 10.1033C38.4874 10.2254 38.4218 10.3911 38.4218 10.5638V15.8535C38.4218 15.9931 38.3687 16.127 38.2742 16.2258C38.1797 16.3245 38.0515 16.38 37.9179 16.38C37.7843 16.38 37.6561 16.3245 37.5616 16.2258C37.4671 16.127 37.4141 15.9931 37.4141 15.8535V10.5638C37.4141 9.62405 38.146 8.85938 39.0455 8.85938C39.9451 8.85938 40.6767 9.62393 40.6767 10.5638V15.8535C40.6763 15.9932 40.623 16.127 40.5284 16.2257C40.4338 16.3243 40.3056 16.3798 40.1719 16.38Z" fill="#FDFDFD"/>
<path fill-rule="evenodd" clip-rule="evenodd" d="M42.4258 18.1334C42.2922 18.1333 42.1641 18.0779 42.0696 17.9792C41.9751 17.8805 41.9219 17.7466 41.9218 17.607V12.8768C41.9218 12.7041 41.8561 12.5385 41.7393 12.4164C41.6225 12.2944 41.464 12.2258 41.2988 12.2258C41.1335 12.2258 40.9751 12.2944 40.8583 12.4164C40.7414 12.5385 40.6758 12.7041 40.6758 12.8768C40.6738 13.015 40.6199 13.147 40.5256 13.2441C40.4313 13.3411 40.3042 13.3955 40.1719 13.3955C40.0395 13.3955 39.9125 13.3411 39.8182 13.2441C39.7239 13.147 39.6699 13.015 39.668 12.8768C39.668 11.937 40.4 11.1719 41.2991 11.1719C42.1982 11.1719 42.9302 11.9364 42.9302 12.8768V17.607C42.93 17.7467 42.8768 17.8805 42.7822 17.9792C42.6877 18.0779 42.5595 18.1334 42.4258 18.1334Z" fill="#FDFDFD"/>
<path fill-rule="evenodd" clip-rule="evenodd" d="M36.4273 21.4289C36.3141 21.4288 36.2042 21.389 36.1153 21.3157C36.0265 21.2424 35.9638 21.14 35.9375 21.025C35.2311 17.9389 33.489 18.1307 33.4726 18.1325C33.1985 18.1708 32.9443 17.9639 32.9102 17.6754C32.9019 17.6068 32.9067 17.5371 32.9242 17.4705C32.9418 17.4038 32.9717 17.3414 33.0123 17.2868C33.0529 17.2322 33.1034 17.1865 33.1609 17.1523C33.2185 17.1182 33.2819 17.0962 33.3475 17.0876C33.4565 17.073 36.0047 16.7894 36.9178 20.7803C36.9332 20.8476 36.9358 20.9173 36.9254 20.9856C36.9151 21.0538 36.8919 21.1193 36.8573 21.1782C36.8227 21.2371 36.7773 21.2883 36.7238 21.3289C36.6702 21.3694 36.6095 21.3986 36.5452 21.4146C36.5065 21.424 36.467 21.4288 36.4273 21.4289Z" fill="#FDFDFD"/>
</g>
<defs>
<clipPath id="clip0_9291_102592">
<rect width="43" height="34" fill="white" transform="translate(0.0273438 0.015625)"/>
</clipPath>
</defs>
</svg>
