<svg width="32" height="45" viewBox="0 0 32 45" fill="none" xmlns="http://www.w3.org/2000/svg">
<path d="M23.7225 40.7429C23.7225 42.8411 20.3168 44.5439 16.1205 44.5439C11.9242 44.5439 8.51855 42.8411 8.51855 40.7429C8.51855 38.8804 11.1945 37.3372 14.7218 37.0103C15.1779 36.9647 15.6416 36.9419 16.1205 36.9419C17.5383 36.9296 18.9492 37.1399 20.3016 37.5653C22.3618 38.2495 23.7225 39.4202 23.7225 40.7429Z" fill="#00839E" fill-opacity="0.3"/>
<path d="M31.3236 15.6552C31.3246 17.9477 30.806 20.2107 29.8067 22.2739C28.8073 24.3373 27.3532 26.1471 25.5537 27.5675C22.3573 30.0656 19.8637 33.3502 18.3166 37.1004C18.2253 37.3208 18.1417 37.5337 18.0581 37.7542L17.5488 39.1529C17.4399 39.4441 17.2448 39.6951 16.9893 39.8723C16.7339 40.0496 16.4304 40.1445 16.1196 40.1445C15.8088 40.1445 15.5053 40.0496 15.2499 39.8723C14.9944 39.6951 14.7993 39.4441 14.6904 39.1529L14.1811 37.7542C14.0975 37.5337 14.0138 37.3208 13.9302 37.1004C12.4243 33.377 9.96191 30.1174 6.79195 27.6511C4.91039 26.1942 3.39858 24.3145 2.37892 22.1642C1.35934 20.0141 0.860577 17.6539 0.923218 15.2751C1.04683 11.2935 2.72823 7.51937 5.60566 4.76461C8.48309 2.00982 12.3267 0.494358 16.31 0.544158C20.2932 0.593967 24.0977 2.20505 26.9054 5.03092C29.7131 7.85682 31.2996 11.6717 31.3236 15.6552Z" fill="#03A6CF"/>
<path d="M16.1183 23.8654C20.6526 23.8654 24.3283 20.1897 24.3283 15.6554C24.3283 11.1211 20.6526 7.44531 16.1183 7.44531C11.5839 7.44531 7.9082 11.1211 7.9082 15.6554C7.9082 20.1897 11.5839 23.8654 16.1183 23.8654Z" fill="#FDFDFD"/>
<path d="M15.3583 30.8598C15.3583 30.44 15.0179 30.0996 14.5981 30.0996V30.0996C14.1782 30.0996 13.8379 30.44 13.8379 30.8598V30.8598C13.8379 31.2797 14.1782 31.62 14.5981 31.62V31.62C15.0179 31.62 15.3583 31.2797 15.3583 30.8598V30.8598Z" fill="white" fill-opacity="0.7"/>
<path d="M18.3993 30.8598C18.3993 30.44 18.059 30.0996 17.6391 30.0996V30.0996C17.2193 30.0996 16.8789 30.44 16.8789 30.8598V30.8598C16.8789 31.2797 17.2193 31.62 17.6391 31.62V31.62C18.059 31.62 18.3993 31.2797 18.3993 30.8598V30.8598Z" fill="white" fill-opacity="0.7"/>
</svg>
