<svg width="31" height="45" viewBox="0 0 31 45" fill="none" xmlns="http://www.w3.org/2000/svg">
<path d="M22.8866 40.8171C22.8866 42.9153 19.4809 44.6181 15.2846 44.6181C11.0883 44.6181 7.68262 42.9153 7.68262 40.8171C7.68262 38.9546 10.3585 37.4114 13.8858 37.0846C14.342 37.0389 14.8057 37.0161 15.2846 37.0161C16.7024 37.0038 18.1132 37.2142 19.4657 37.6395C21.5258 38.3237 22.8866 39.4944 22.8866 40.8171Z" fill="#F4CDDB"/>
<path d="M30.4876 15.7294C30.4887 18.0219 29.9701 20.2849 28.9707 22.3481C27.9714 24.4115 26.5173 26.2213 24.7177 27.6417C21.5213 30.1398 19.0277 33.4244 17.4806 37.1746C17.3894 37.3951 17.3058 37.6079 17.2222 37.8284L16.7128 39.2271C16.604 39.5183 16.4088 39.7693 16.1534 39.9465C15.898 40.1238 15.5945 40.2188 15.2837 40.2188C14.9728 40.2188 14.6693 40.1238 14.4139 39.9465C14.1585 39.7693 13.9633 39.5183 13.8545 39.2271L13.3452 37.8284C13.2615 37.6079 13.1779 37.3951 13.0943 37.1746C11.5884 33.4512 9.12597 30.1916 5.95602 27.7253C4.07445 26.2684 2.56264 24.3887 1.54299 22.2384C0.523406 20.0883 0.0246399 17.7281 0.0872803 15.3493C0.210889 11.3677 1.8923 7.59359 4.76973 4.83883C7.64716 2.08404 11.4908 0.568577 15.474 0.618377C19.4572 0.668185 23.2618 2.27927 26.0694 5.10514C28.8772 7.93104 30.4636 11.746 30.4876 15.7294Z" fill="#CD2863"/>
<path d="M15.2821 24.5311C20.1432 24.5311 24.0838 20.5904 24.0838 15.7294C24.0838 10.8683 20.1432 6.92773 15.2821 6.92773C10.4211 6.92773 6.48047 10.8683 6.48047 15.7294C6.48047 20.5904 10.4211 24.5311 15.2821 24.5311Z" fill="#FDFDFD"/>
<path d="M14.5224 30.934C14.5224 30.5142 14.182 30.1738 13.7622 30.1738V30.1738C13.3423 30.1738 13.002 30.5142 13.002 30.934V30.934C13.002 31.3539 13.3423 31.6942 13.7622 31.6942V31.6942C14.182 31.6942 14.5224 31.3539 14.5224 30.934V30.934Z" fill="#F4CDDB"/>
<path d="M17.5634 30.934C17.5634 30.5142 17.223 30.1738 16.8032 30.1738V30.1738C16.3833 30.1738 16.043 30.5142 16.043 30.934V30.934C16.043 31.3539 16.3833 31.6942 16.8032 31.6942V31.6942C17.223 31.6942 17.5634 31.3539 17.5634 30.934V30.934Z" fill="#F4CDDB"/>
</svg>
