<svg width="31" height="45" viewBox="0 0 31 45" fill="none" xmlns="http://www.w3.org/2000/svg">
<path d="M23.3251 40.5906C23.3251 42.6887 19.9194 44.3916 15.7231 44.3916C11.5268 44.3916 8.12109 42.6887 8.12109 40.5906C8.12109 38.7281 10.797 37.1849 14.3243 36.858C14.7804 36.8124 15.2442 36.7896 15.7231 36.7896C17.1409 36.7773 18.5517 36.9876 19.9042 37.4129C21.9643 38.0971 23.3251 39.2678 23.3251 40.5906Z" fill="#ACACAF" fill-opacity="0.4"/>
<path d="M30.9261 15.5028C30.9272 17.7954 30.4086 20.0583 29.4092 22.1216C28.4099 24.1849 26.9558 25.9947 25.1562 27.4152C21.9598 29.9132 19.4662 33.1978 17.9191 36.948C17.8279 37.1685 17.7443 37.3814 17.6606 37.6018L17.1513 39.0006C17.0425 39.2917 16.8473 39.5428 16.5919 39.72C16.3365 39.8972 16.033 39.9922 15.7221 39.9922C15.4113 39.9922 15.1078 39.8972 14.8524 39.72C14.597 39.5428 14.4018 39.2917 14.293 39.0006L13.7836 37.6018C13.7 37.3814 13.6164 37.1685 13.5328 36.948C12.0269 33.2247 9.56445 29.965 6.39449 27.4988C4.51292 26.0419 3.00112 24.1621 1.98146 22.0119C0.961883 19.8617 0.463116 17.5015 0.525757 15.1227C0.649365 11.1411 2.33077 7.36703 5.2082 4.61226C8.08563 1.85748 11.9293 0.342014 15.9125 0.391815C19.8957 0.441623 23.7003 2.0527 26.5079 4.87858C29.3156 7.70448 30.9021 11.5194 30.9261 15.5028Z" fill="#ACACAF"/>
<path d="M15.7207 23.9003C20.3585 23.9003 24.1181 20.1407 24.1181 15.5029C24.1181 10.8651 20.3585 7.10547 15.7207 7.10547C11.0829 7.10547 7.32324 10.8651 7.32324 15.5029C7.32324 20.1407 11.0829 23.9003 15.7207 23.9003Z" fill="#FDFDFD"/>
<path d="M14.9608 30.7075C14.9608 30.2876 14.6205 29.9473 14.2006 29.9473V29.9473C13.7808 29.9473 13.4404 30.2876 13.4404 30.7075V30.7075C13.4404 31.1273 13.7808 31.4677 14.2006 31.4677V31.4677C14.6205 31.4677 14.9608 31.1273 14.9608 30.7075V30.7075Z" fill="#FDFDFD" fill-opacity="0.7"/>
<path d="M18.0018 30.7075C18.0018 30.2876 17.6615 29.9473 17.2416 29.9473V29.9473C16.8218 29.9473 16.4814 30.2876 16.4814 30.7075V30.7075C16.4814 31.1273 16.8218 31.4677 17.2416 31.4677V31.4677C17.6615 31.4677 18.0018 31.1273 18.0018 30.7075V30.7075Z" fill="#FDFDFD" fill-opacity="0.7"/>
</svg>
