<svg width="81" height="81" viewBox="0 0 81 81" fill="none" xmlns="http://www.w3.org/2000/svg">
<g clip-path="url(#clip0_13120_81362)">
<path d="M77.3981 40.8743C78.6336 39.4355 79.4994 37.7171 79.9204 35.8679C80.3414 34.0188 80.3049 32.0949 79.814 30.2631C79.3231 28.4313 78.3927 26.7469 77.1035 25.3561C75.8142 23.9652 74.2051 22.91 72.4157 22.2818C72.7663 20.418 72.6569 18.4967 72.0968 16.6848C71.5368 14.8729 70.5431 13.2249 69.2019 11.884C67.8608 10.543 66.2127 9.54953 64.4007 8.98974C62.5886 8.42994 60.6674 8.32073 58.8035 8.67157C58.1758 6.88178 57.1208 5.27224 55.7299 3.98272C54.339 2.69319 52.6544 1.76264 50.8223 1.27187C48.9902 0.781096 47.066 0.744931 45.2167 1.16651C43.3675 1.5881 41.6491 2.45468 40.2108 3.69104C38.772 2.45553 37.0535 1.58973 35.2043 1.16873C33.3552 0.747727 31.4312 0.784249 29.5994 1.27512C27.7675 1.766 26.0831 2.6964 24.6923 3.98561C23.3014 5.27483 22.2462 6.88392 21.618 8.6733C19.7543 8.32302 17.8332 8.43273 16.0215 8.9929C14.2097 9.55307 12.562 10.5468 11.2213 11.8879C9.88049 13.229 8.88717 14.8769 8.32745 16.6887C7.76773 18.5006 7.65852 20.4216 8.00928 22.2853C6.21987 22.9134 4.61075 23.9687 3.32151 25.3595C2.03228 26.7504 1.10186 28.4347 0.610978 30.2666C0.120096 32.0984 0.0835686 34.0223 0.504575 35.8714C0.925581 37.7205 1.79142 39.439 3.02694 40.8778C1.79104 42.3165 0.924939 44.0351 0.503813 45.8844C0.0826872 47.7337 0.119247 49.6578 0.610343 51.4898C1.10144 53.3218 2.03222 55.0062 3.3219 56.3969C4.61157 57.7877 6.22119 58.8426 8.01102 59.4702C7.65995 61.3339 7.76904 63.2551 8.32883 65.067C8.88862 66.879 9.88219 68.5269 11.2233 69.8678C12.5644 71.2087 14.2125 72.2021 16.0245 72.7616C17.8366 73.3212 19.7578 73.43 21.6215 73.0787C22.2496 74.8681 23.3049 76.4772 24.6958 77.7664C26.0866 79.0556 27.771 79.986 29.6029 80.4769C31.4347 80.9678 33.3586 81.0043 35.2078 80.5833C37.0569 80.1623 38.7755 79.2965 40.2142 78.061C41.653 79.2969 43.3716 80.163 45.2209 80.5841C47.0703 81.0052 48.9944 80.9686 50.8264 80.4776C52.6584 79.9865 54.3429 79.0557 55.7337 77.766C57.1244 76.4764 58.1794 74.8668 58.807 73.077C60.6708 73.428 62.592 73.3188 64.404 72.759C66.216 72.1992 67.864 71.2057 69.2051 69.8647C70.5461 68.5237 71.5396 66.8757 72.0994 65.0637C72.6592 63.2517 72.7684 61.3305 72.4174 59.4668C74.207 58.8388 75.8162 57.7835 77.1055 56.3926C78.3948 55.0018 79.3252 53.3173 79.816 51.4853C80.3067 49.6534 80.343 47.7294 79.9216 45.8803C79.5003 44.0311 78.634 42.3128 77.3981 40.8743Z" fill="#18C07A"/>
<path d="M33.0344 56.1411L21.9186 45.0324C21.4967 44.6099 21.2598 44.0372 21.2598 43.4401C21.2598 42.8431 21.4967 42.2704 21.9186 41.8479L23.2691 40.4957C23.6916 40.0738 24.2643 39.8369 24.8614 39.8369C25.4584 39.8369 26.0311 40.0738 26.4537 40.4957L34.5339 48.5706L53.5636 28.3486C53.9731 27.9141 54.5382 27.6599 55.1349 27.6417C55.7317 27.6235 56.3113 27.8428 56.7465 28.2515L58.1333 29.5603C58.5683 29.9699 58.8229 30.5354 58.8411 31.1325C58.8593 31.7297 58.6396 32.3096 58.2304 32.7449L36.2727 56.0908C36.066 56.3112 35.817 56.4877 35.5407 56.6099C35.2644 56.7321 34.9663 56.7975 34.6642 56.8022C34.3621 56.8069 34.0621 56.7508 33.7821 56.6372C33.5021 56.5236 33.2479 56.3549 33.0344 56.1411Z" fill="white"/>
</g>
<defs>
<clipPath id="clip0_13120_81362">
<rect width="80" height="80" fill="white" transform="translate(0.212891 0.875)"/>
</clipPath>
</defs>
</svg>
