<svg width="81" height="81" viewBox="0 0 81 81" fill="none" xmlns="http://www.w3.org/2000/svg">
<g clip-path="url(#clip0_13335_81837)">
<path d="M77.3199 40.8743C78.5555 39.4355 79.4213 37.7171 79.8423 35.8679C80.2633 34.0188 80.2268 32.0949 79.7359 30.2631C79.245 28.4313 78.3146 26.7469 77.0253 25.3561C75.7361 23.9652 74.127 22.91 72.3376 22.2818C72.6882 20.418 72.5787 18.4967 72.0187 16.6848C71.4587 14.8729 70.465 13.2249 69.1238 11.884C67.7827 10.543 66.1346 9.54953 64.3225 8.98974C62.5105 8.42994 60.5892 8.32073 58.7254 8.67157C58.0977 6.88178 57.0426 5.27224 55.6518 3.98272C54.2609 2.69319 52.5763 1.76264 50.7442 1.27187C48.9121 0.781096 46.9879 0.744931 45.1386 1.16651C43.2894 1.5881 41.571 2.45468 40.1326 3.69104C38.6939 2.45553 36.9754 1.58973 35.1262 1.16873C33.2771 0.747727 31.3531 0.784249 29.5213 1.27512C27.6894 1.766 26.005 2.6964 24.6142 3.98561C23.2233 5.27483 22.168 6.88392 21.5399 8.6733C19.6761 8.32302 17.7551 8.43273 15.9433 8.9929C14.1316 9.55307 12.4839 10.5468 11.1431 11.8879C9.80237 13.229 8.80905 14.8769 8.24933 16.6887C7.68961 18.5006 7.5804 20.4216 7.93116 22.2853C6.14175 22.9134 4.53263 23.9687 3.24339 25.3595C1.95415 26.7504 1.02373 28.4347 0.532853 30.2666C0.0419713 32.0984 0.0054436 34.0223 0.42645 35.8714C0.847456 37.7205 1.71329 39.439 2.94881 40.8778C1.71292 42.3165 0.846814 44.0351 0.425688 45.8844C0.00456215 47.7337 0.0411215 49.6578 0.532218 51.4898C1.02331 53.3218 1.95409 55.0062 3.24377 56.3969C4.53345 57.7877 6.14307 58.8426 7.93289 59.4702C7.58183 61.3339 7.69092 63.2551 8.2507 65.067C8.81049 66.879 9.80407 68.5269 11.1452 69.8678C12.4863 71.2087 14.1344 72.2021 15.9464 72.7616C17.7584 73.3212 19.6797 73.43 21.5433 73.0787C22.1715 74.8681 23.2268 76.4772 24.6176 77.7664C26.0085 79.0556 27.6929 79.986 29.5247 80.4769C31.3566 80.9678 33.2805 81.0043 35.1297 80.5833C36.9788 80.1623 38.6973 79.2965 40.1361 78.061C41.5748 79.2969 43.2935 80.163 45.1428 80.5841C46.9922 81.0052 48.9163 80.9686 50.7483 80.4776C52.5803 79.9865 54.2648 79.0557 55.6555 77.766C57.0463 76.4764 58.1012 74.8668 58.7289 73.077C60.5926 73.428 62.5139 73.3188 64.3259 72.759C66.1379 72.1992 67.7859 71.2057 69.127 69.8647C70.468 68.5237 71.4615 66.8757 72.0213 65.0637C72.5811 63.2517 72.6903 61.3305 72.3393 59.4668C74.1288 58.8388 75.7381 57.7835 77.0274 56.3926C78.3167 55.0018 79.2471 53.3173 79.7378 51.4853C80.2286 49.6534 80.2648 47.7294 79.8435 45.8803C79.4221 44.0311 78.5559 42.3128 77.3199 40.8743Z" fill="#CB3A31"/>
</g>
<path d="M30.8516 32.8984L49.3399 51.3868" stroke="#FDFDFD" stroke-width="5" stroke-linecap="round" stroke-linejoin="round"/>
<path d="M30.8515 51.3868L49.3398 32.8984" stroke="#FDFDFD" stroke-width="5" stroke-linecap="round" stroke-linejoin="round"/>
<defs>
<clipPath id="clip0_13335_81837">
<rect width="80" height="80" fill="white" transform="translate(0.134766 0.875)"/>
</clipPath>
</defs>
</svg>
